<?xml version="1.0" encoding="iso-8859-1"?>
<!-- Generator: Adobe Illustrator 16.0.0, SVG Export Plug-In . SVG Version: 6.00 Build 0)  -->
<!DOCTYPE svg PUBLIC "-//W3C//DTD SVG 1.1//EN" "http://www.w3.org/Graphics/SVG/1.1/DTD/svg11.dtd">
<svg version="1.1" id="Capa_1" xmlns="http://www.w3.org/2000/svg" xmlns:xlink="http://www.w3.org/1999/xlink" x="0px" y="0px"
	 width="68.754px" height="68.754px" viewBox="0 0 68.754 68.754" style="enable-background:new 0 0 68.754 68.754;"
	 xml:space="preserve">
<g>
	<g>
		<path d="M68.152,35.617L54.333,21.797v-9.112c0-1.135-0.92-2.056-2.055-2.056c-1.137,0-2.058,0.921-2.058,2.056v5.002
			l-9.748-9.748c-0.805-0.803-2.104-0.803-2.906,0L23.094,22.415c-0.802,0.804-0.802,2.104,0,2.907c0.803,0.802,2.104,0.802,2.908,0
			l13.021-13.021l26.224,26.222c0.4,0.402,0.93,0.603,1.453,0.603c0.525,0,1.051-0.2,1.452-0.603
			C68.954,37.72,68.954,36.417,68.152,35.617z"/>
		<path d="M62.271,37.976L40.476,16.18c-0.387-0.386-0.908-0.603-1.453-0.603s-1.067,0.217-1.452,0.603L26.426,27.324
			c0.033,0,0.066-0.008,0.101-0.008c0.625,0,1.233,0.179,1.759,0.518c0.834,0.535,1.371,1.407,1.477,2.393l0.005,0.047l0.16-0.004
			c0.949,0,1.847,0.41,2.466,1.124c0.647,0.749,0.919,1.737,0.742,2.711l-0.009,0.048l0.047,0.011
			c0.959,0.244,1.746,0.9,2.157,1.802c0.41,0.9,0.393,1.927-0.053,2.812l-0.021,0.043l0.041,0.023
			c0.604,0.357,1.062,0.891,1.327,1.52c0.603-0.67,1.441-1.122,2.396-1.213c1.878,0.179,3.331,1.763,3.331,3.658v7.812
			c0,1.252,0.472,2.447,1.323,3.373c0.938,1.014,2.267,1.596,3.646,1.596h10.637c2.74,0,4.971-2.229,4.971-4.969V39.984
			c-0.001-0.312-0.032-0.629-0.094-0.943C62.759,38.636,62.562,38.267,62.271,37.976z"/>
		<path d="M34.936,41.271c-0.078-0.537-0.396-1.014-0.863-1.291l-1.209-0.715l0.631-1.259c0.242-0.485,0.254-1.057,0.025-1.553
			c-0.227-0.495-0.664-0.86-1.192-0.995l-1.361-0.348l0.251-1.383c0.097-0.535-0.054-1.087-0.41-1.498s-0.88-0.638-1.425-0.62
			l-1.405,0.052l-0.148-1.398c-0.059-0.541-0.358-1.027-0.817-1.321c-0.457-0.296-1.023-0.366-1.54-0.193l-1.334,0.444l-0.537-1.299
			c-0.208-0.504-0.633-0.885-1.155-1.039c-0.522-0.152-1.086-0.061-1.533,0.25l-1.154,0.803l-0.882-1.096
			c-0.343-0.424-0.857-0.671-1.4-0.671c-0.546,0-1.061,0.247-1.402,0.671l-0.881,1.095l-1.154-0.803
			c-0.447-0.31-1.011-0.401-1.534-0.248c-0.521,0.153-0.947,0.534-1.155,1.038l-0.536,1.299L9.482,28.75
			c-0.517-0.173-1.084-0.103-1.541,0.193c-0.459,0.294-0.758,0.779-0.816,1.321l-0.15,1.397l-1.404-0.051
			c-0.54-0.015-1.069,0.208-1.425,0.62c-0.356,0.411-0.508,0.961-0.411,1.498l0.251,1.383l-1.362,0.347
			c-0.527,0.136-0.966,0.5-1.191,0.996c-0.228,0.495-0.217,1.065,0.027,1.553l0.631,1.257l-1.21,0.717
			c-0.468,0.277-0.786,0.752-0.863,1.291c-0.078,0.539,0.093,1.086,0.465,1.482l0.958,1.025l-0.958,1.029
			c-0.372,0.396-0.543,0.94-0.465,1.479c0.077,0.539,0.396,1.017,0.863,1.291l1.21,0.717L1.46,49.554
			c-0.244,0.485-0.254,1.061-0.027,1.553c0.226,0.496,0.663,0.861,1.191,0.996l1.362,0.35l-0.251,1.383
			c-0.097,0.535,0.055,1.086,0.411,1.498s0.881,0.639,1.425,0.619L6.976,55.9l0.15,1.396c0.059,0.541,0.357,1.026,0.815,1.322
			c0.459,0.295,1.025,0.362,1.542,0.192l1.333-0.444l0.536,1.299c0.208,0.504,0.634,0.888,1.155,1.037
			c0.523,0.155,1.087,0.063,1.534-0.248l1.154-0.802l0.882,1.095c0.341,0.424,0.855,0.67,1.401,0.67c0.543,0,1.06-0.246,1.4-0.67
			l0.882-1.097l1.154,0.804c0.447,0.312,1.01,0.401,1.533,0.248c0.522-0.149,0.947-0.533,1.155-1.037l0.537-1.299l1.334,0.444
			c0.517,0.172,1.083,0.103,1.54-0.194c0.459-0.294,0.759-0.779,0.817-1.322l0.148-1.396l1.405,0.054
			c0.538,0.019,1.068-0.209,1.425-0.621c0.356-0.41,0.508-0.961,0.41-1.498l-0.251-1.383l1.361-0.349
			c0.528-0.135,0.967-0.5,1.192-0.996c0.229-0.492,0.217-1.063-0.025-1.553l-0.631-1.258l1.209-0.717
			c0.469-0.275,0.786-0.754,0.863-1.293c0.077-0.537-0.094-1.082-0.465-1.479l-0.958-1.029l0.958-1.025
			C34.842,42.357,35.013,41.81,34.936,41.271z M6.862,41.001c0-0.811,0.594-1.357,1.402-1.357c1.185,0,1.329,1.519,2.961,1.519
			c0.681,0,1.286-0.229,1.286-0.867c0-0.418-0.303-0.592-0.909-0.767l-2.21-0.635c-1.663-0.478-2.572-1.459-2.572-2.918
			c0-1.733,1.155-3.368,4.045-3.368c1.923,0,4.406,0.464,4.406,2.211c0,0.809-0.62,1.314-1.444,1.314
			c-1.112,0-1.127-1.271-2.773-1.271c-0.563,0-1.084,0.215-1.084,0.691c0,0.463,0.404,0.666,1.112,0.853l1.72,0.463
			c1.747,0.478,2.946,1.286,2.946,3.092c0,2.472-2.124,3.539-4.319,3.539C7.932,43.501,6.862,41.943,6.862,41.001z M14.635,54.954
			H9.723c-1.286,0-1.893-0.593-1.893-1.979v-6.818c0-1.11,0.635-1.79,1.662-1.79c1.025,0,1.661,0.68,1.661,1.79v6.111h3.481
			c0.852,0,1.43,0.49,1.43,1.344C16.063,54.463,15.487,54.954,14.635,54.954z M17.136,38.054c0-3.64,2.616-5.446,5.374-5.446
			c2.76,0,5.374,1.807,5.374,5.446c0,3.771-2.584,5.447-5.374,5.447C19.722,43.501,17.136,41.827,17.136,38.054z M23.146,54.954
			H20.33c-1.286,0-1.894-0.593-1.894-1.979v-6.442c0-1.388,0.607-1.979,1.894-1.979h2.816c3.452,0,4.984,2.312,4.984,5.201
			S26.598,54.954,23.146,54.954z"/>
		<path d="M22.41,47.152h-0.737v5.201h0.737c1.921,0,2.397-0.953,2.397-2.602C24.807,48.105,24.33,47.152,22.41,47.152z"/>
		<path d="M24.562,38.054c0-1.688-0.664-2.846-2.053-2.846c-1.387,0-2.05,1.156-2.05,2.846c0,1.691,0.663,2.848,2.05,2.848
			C23.897,40.902,24.562,39.747,24.562,38.054z"/>
	</g>
</g>
<g>
</g>
<g>
</g>
<g>
</g>
<g>
</g>
<g>
</g>
<g>
</g>
<g>
</g>
<g>
</g>
<g>
</g>
<g>
</g>
<g>
</g>
<g>
</g>
<g>
</g>
<g>
</g>
<g>
</g>
</svg>
